<svg height="512pt" viewBox="0 0 512 512" width="512pt" xmlns="http://www.w3.org/2000/svg"><path d="m511.621094 255.808594c0 141.28125-114.53125 255.8125-255.8125 255.8125-141.277344 0-255.808594-114.53125-255.808594-255.8125 0-141.277344 114.53125-255.808594 255.808594-255.808594 141.28125 0 255.8125 114.53125 255.8125 255.808594zm0 0" fill="#f26065"/><path d="m268.464844 350.71875 104.65625 119.027344v-127.203125" fill="#ffe662"/><path d="m469.117188 387.019531-441.507813-45.632812-1.898437-227.675781 486.289062-71.824219zm0 0" fill="#ffe662"/><g fill="#314c8f"><path d="m131.242188 158.203125c.039062-2.789063 2.839843-4.449219 5.632812-4.714844l17.191406-1.632812c8.605469-.816407 17.277344 1.625 16.957032 14.46875-.183594 7.285156-3.09375 12.226562-7.734376 14.578125 5.238282 1.707031 8.820313 4.78125 8.597657 13.6875l-.046875 1.863281c-.355469 13.96875-8.066406 19.214844-17.636719 19.515625l-18.292969.574219c-3.386718.105469-5.445312-1.683594-5.414062-3.792969zm12.441406 18.761719 8.792968-.621094c3.222657-.226562 4.90625-3.441406 4.972657-6.457031.0625-3.113281-1.496094-6.09375-4.730469-5.824219l-8.824219.730469zm7.820312 27.351562c4.203125-.179687 6.796875-2.730468 6.917969-8.332031l.03125-1.402344c.128906-5.972656-2.378906-7.933593-6.605469-7.679687l-8.347656.503906-.296875 17.269531zm0 0"/><path d="m199.082031 175.804688 14.050781-.957032c2.855469-.195312 4.378907 2.410156 4.265626 5.402344-.097657 2.523438-1.546876 5.582031-4.675782 5.761719l-14.003906.808593-.511719 15.492188 25.160157-1.082031c2.890624-.125 4.414062 2.785156 4.269531 6.230469-.125 2.972656-1.609375 6.261718-4.777344 6.359374l-33.035156 1.035157c-3.046875.09375-6.039063-1.230469-5.957031-4.082031l1.667968-57.496094c.082032-2.945313 3.222656-4.714844 6.332032-5.011719l33.753906-3.203125c3.238281-.308594 4.480468 2.929688 4.351562 6.003906-.148437 3.546875-1.941406 6.75-4.875 6.992188l-25.5 2.117187zm0 0"/><path d="m271.359375 193.34375c.636719-11.828125-31.914063-7.925781-30.914063-30.3125.644532-14.503906 14.25-21.320312 27.304688-22.566406 5.628906-.539063 21.371094-1.027344 20.914062 6.886718-.160156 2.730469-2.441406 8.441407-7.207031 8.824219-3.867187.3125-5.695312-3.316406-14.386719-2.585937-7.421874.621094-10.5625 3.714844-10.714843 6.75-.476563 9.753906 33.191406 5.503906 31.722656 30.617187-.828125 14.195313-12.441406 22.171875-27.511719 22.632813-13.269531.402344-23.910156-5.25-23.636718-11.445313.140624-3.199219 3.320312-8.058593 7.105468-8.246093 4.722656-.230469 7.414063 6.691406 16.90625 6.289062 4.757813-.199219 10.167969-2.175781 10.417969-6.84375zm0 0"/><path d="m357.523438 132.539062c4.082031-.390624 5.515624 3.347657 5.234374 6.921876-.320312 4.101562-2.699218 7.828124-6.390624 8.132812l-16.6875 1.378906-4.070313 56.425782c-.234375 3.269531-4.890625 5.042968-9.390625 5.183593-4.46875.140625-8.796875-1.328125-8.578125-4.546875l3.722656-55.550781-15.742187 1.300781c-3.367188.277344-5.058594-2.933594-4.820313-6.820312.207031-3.382813 2.003907-7.230469 5.722657-7.585938zm0 0"/><path d="m114.804688 238.492188c.019531-2.050782 1.8125-3.878907 4.53125-3.914063l16.382812-.21875c10.734375-.144531 19.253906 5.035156 18.953125 19.304687l-.007813.421876c-.296874 14.144531-9.253906 19.273437-20.335937 18.988281l-7.796875-.203125-.226562 17.476562c-.03125 2.574219-3.066407 3.714844-6.070313 3.574219-2.980469-.144531-5.933594-1.554687-5.90625-4.097656zm12.074218 7.253906-.222656 17.339844 7.820312.125c4.480469.070312 7.265626-2.542969 7.363282-8.207032l.015625-.917968c.097656-5.6875-2.609375-8.363282-7.113281-8.355469zm0 0"/><path d="m165.808594 238.015625c.050781-2.15625 1.722656-4.078125 4.214844-4.113281l18.148437-.242188c12.371094-.164062 22.257813 4.296875 21.71875 18.910156-.367187 9.96875-5.253906 15.546876-11.679687 17.785157l10.390624 19.652343c.347657.539063.417969 1.15625.402344 1.589844-.128906 3.402344-4.988281 6.832032-9.132812 6.632813-1.789063-.085938-3.464844-.855469-4.382813-2.707031l-11.386719-23.316407-5.753906-.136719-.574218 20.523438c-.074219 2.707031-3.457032 3.902344-6.777344 3.742188-3.300782-.15625-6.546875-1.648438-6.484375-4.320313zm13.273437 7.632813-.449219 16.109374 8.683594.117188c4.976563.070312 8.085938-1.90625 8.289063-8.054688.199219-6.171874-2.792969-8.195312-7.796875-8.1875zm0 0"/><path d="m223.910156 237.472656c.121094-3.011718 3.914063-4.339844 7.675782-4.390625 3.789062-.050781 7.546874 1.195313 7.410156 4.25l-2.605469 57.824219c-.128906 2.855469-3.925781 4.105469-7.636719 3.929688-3.679687-.175782-7.28125-1.757813-7.164062-4.578126zm0 0"/><path d="m279.824219 245.464844c-5.972657.011718-9.5625 3.042968-9.910157 9.460937l-1.34375 24.777344c-.34375 6.304687 2.875 9.386719 8.859376 9.605469 8.363281.308594 9.230468-5.402344 9.765624-9.070313.527344-3.488281 4.199219-4.34375 8.484376-4.238281 5.832031.144531 8.46875 1.554688 8.097656 7.300781-.820313 12.667969-12.839844 19.308594-27.789063 18.589844-13.355469-.644531-23.941406-6.960937-23.164062-22.636719l1.210937-24.433594c.796875-16.046874 12.222656-22.203124 25.894532-22.382812 15.3125-.203125 26.695312 6.710938 25.894531 19.121094-.375 5.832031-3.199219 7.164062-8.960938 7.109375-4.523437-.042969-8.097656-1.132813-8.105469-4.578125.039063-2.492188.085938-8.640625-8.933593-8.625zm0 0"/><path d="m338.433594 262.261719 17.660156.21875c3.597656.046875 5.40625 3.011719 5.140625 6.25-.21875 2.730469-2.160156 5.917969-6.097656 5.832031l-17.585938-.394531-1.242187 16.730469 31.597656 1.148437c3.644531.132813 5.441406 3.4375 5.125 7.160156-.273438 3.214844-2.273438 6.640625-6.261719 6.453125l-41.421875-1.972656c-3.808594-.183594-7.488281-1.894531-7.273437-4.964844l4.28125-62.070312c.222656-3.1875 4.210937-4.835938 8.117187-4.886719l42.511719-.566406c4.09375-.054688 5.53125 3.578125 5.246094 6.914062-.328125 3.847657-2.71875 7.175781-6.421875 7.183594l-32.121094.058594zm0 0"/></g></svg>